<?xml version="1.0" encoding="UTF-8"?><svg id="Layer_2" xmlns="http://www.w3.org/2000/svg" xmlns:xlink="http://www.w3.org/1999/xlink" viewBox="0 0 247 247"><defs><style>.cls-1{fill:url(#linear-gradient);}.cls-1,.cls-2,.cls-3{stroke-width:0px;}.cls-2{fill:#ef4136;}.cls-3{fill:url(#linear-gradient-2);}</style><linearGradient id="linear-gradient" x1="278.96" y1="198.22" x2="56.28" y2="91.19" gradientTransform="translate(123.5 -51.16) rotate(45)" gradientUnits="userSpaceOnUse"><stop offset=".52" stop-color="#fff"/><stop offset="1" stop-color="#000"/></linearGradient><linearGradient id="linear-gradient-2" x1="211.07" y1="134.8" x2="79.39" y2="140.25" gradientUnits="userSpaceOnUse"><stop offset="0" stop-color="#fff"/><stop offset=".34" stop-color="#fdfdfd"/><stop offset=".48" stop-color="#f6f6f6"/><stop offset=".58" stop-color="#e9e9e9"/><stop offset=".66" stop-color="#d8d8d8"/><stop offset=".73" stop-color="#c1c1c1"/><stop offset=".79" stop-color="#a5a5a5"/><stop offset=".85" stop-color="#848484"/><stop offset=".9" stop-color="#5d5d5d"/><stop offset=".95" stop-color="#333"/><stop offset="1" stop-color="#040404"/><stop offset="1" stop-color="#000"/></linearGradient></defs><g id="Layer_4"><rect class="cls-1" x="0" y="0" width="247" height="247" rx="123.5" ry="123.5" transform="translate(-51.16 123.5) rotate(-45)"/><path class="cls-3" d="M193.59,79.04c19.34,19.34,9.37,60.66-22.26,92.29-31.63,31.63-72.95,41.6-92.29,22.26-3.3-3.3-5.75-7.25-7.38-11.68,21.49,7.92,54.39-3.42,80.61-29.64s37.56-59.12,29.64-80.61c4.43,1.63,8.38,4.08,11.68,7.38Z"/><path class="cls-2" d="M145.16,35.85c5.71,5.71,2.44,18.25-7.31,28s-22.29,13.02-28,7.31c-.97-.97-1.69-2.15-2.15-3.48,6.44,2.25,16.44-1.38,24.52-9.46,8.08-8.08,11.72-18.08,9.46-24.52,1.33.47,2.5,1.18,3.48,2.15Z"/><path class="cls-2" d="M71.86,109.14c5.71,5.71,2.44,18.25-7.31,28-9.75,9.75-22.29,13.02-28,7.31-.97-.97-1.69-2.15-2.15-3.48,6.44,2.25,16.44-1.38,24.52-9.46s11.72-18.08,9.46-24.52c1.33.47,2.5,1.18,3.48,2.15Z"/></g></svg>